<?xml version="1.0" encoding="UTF-8" standalone="no"?>
<!-- Created with Inkscape (http://www.inkscape.org/) -->

<svg
   xmlns:dc="http://purl.org/dc/elements/1.1/"
   xmlns:cc="http://creativecommons.org/ns#"
   xmlns:rdf="http://www.w3.org/1999/02/22-rdf-syntax-ns#"
   xmlns:svg="http://www.w3.org/2000/svg"
   xmlns="http://www.w3.org/2000/svg"
   xmlns:sodipodi="http://sodipodi.sourceforge.net/DTD/sodipodi-0.dtd"
   xmlns:inkscape="http://www.inkscape.org/namespaces/inkscape"
   width="744.09448819"
   height="1052.3622047"
   id="svg2"
   version="1.1"
   inkscape:version="0.48.0 r9654"
   sodipodi:docname="New document 1">
  <defs
     id="defs4" />
  <sodipodi:namedview
     id="base"
     pagecolor="#ffffff"
     bordercolor="#666666"
     borderopacity="1.0"
     inkscape:pageopacity="0.0"
     inkscape:pageshadow="2"
     inkscape:zoom="1.979899"
     inkscape:cx="344.03659"
     inkscape:cy="571.74127"
     inkscape:document-units="px"
     inkscape:current-layer="layer1"
     showgrid="true"
     inkscape:window-width="1600"
     inkscape:window-height="1148"
     inkscape:window-x="1600"
     inkscape:window-y="24"
     inkscape:window-maximized="1">
    <inkscape:grid
       type="xygrid"
       id="grid2985" />
  </sodipodi:namedview>
  <metadata
     id="metadata7">
    <rdf:RDF>
      <cc:Work
         rdf:about="">
        <dc:format>image/svg+xml</dc:format>
        <dc:type
           rdf:resource="http://purl.org/dc/dcmitype/StillImage" />
        <dc:title></dc:title>
      </cc:Work>
    </rdf:RDF>
  </metadata>
  <g
     inkscape:label="Layer 1"
     inkscape:groupmode="layer"
     id="layer1">
    <path
       style="fill:none;stroke:#000000;stroke-width:1px;stroke-linecap:butt;stroke-linejoin:miter;stroke-opacity:1"
       d="m 100,352.36218 10,0 0,-35 160,0 0,35 320,0"
       id="path2987"
       inkscape:connector-curvature="0"
       sodipodi:nodetypes="cccccc" />
    <path
       style="fill:none;stroke:#000000;stroke-width:1px;stroke-linecap:butt;stroke-linejoin:miter;stroke-opacity:1"
       d="m 100,402.36218 249.64286,0 0.35714,-35 10,0 0,35 9.28571,0 0.71429,-35 10,0 0,35 10,0 0,-35 10,0 0,35 10,0 0,-35 10,0 0,35 10,0 0,-35 10,0 0,35 10,0 0,-35 10,0 0,35 10,0 0,-35 10,0 0,35 10,0 0,-35 10,0 0,35 90,0"
       id="path2989"
       inkscape:connector-curvature="0"
       sodipodi:nodetypes="cccccccccccccccccccccccccccccccccc" />
    <path
       style="fill:none;stroke:#000000;stroke-width:1px;stroke-linecap:butt;stroke-linejoin:miter;stroke-opacity:1"
       d="m 100,452.36218 170.35714,0 -0.35714,-35 160,0 0,35 160,0"
       id="path2991"
       inkscape:connector-curvature="0"
       sodipodi:nodetypes="cccccc" />
    <path
       style="fill:none;stroke:#000000;stroke-width:1px;stroke-linecap:butt;stroke-linejoin:miter;stroke-opacity:1"
       d="m 100,502.36218 10,0 0,-35 10,0 0,35 10.71429,0 -0.71429,-35 10,0 0,35 10,0 0,-35 10,0 0,35 10,0 0,-35 10,0 0,35 330,0 0,-35 10,0 0,35 10,0 0,-35 10,0 0,35 10,0 0,-35 10,0 0,35 10,0 0,-35 10,0 0,35 10,0"
       id="path2993"
       inkscape:connector-curvature="0"
       sodipodi:nodetypes="cccccccccccccccccccccccccccccccccc" />
    <path
       style="fill:none;stroke:#000000;stroke-width:1px;stroke-linecap:butt;stroke-linejoin:miter;stroke-opacity:1"
       d="m 100,552.36218 335,0 0,-35 155,0 0,35"
       id="path2995"
       inkscape:connector-curvature="0"
       sodipodi:nodetypes="ccccc" />
    <path
       style="fill:none;stroke:#000000;stroke-width:1px;stroke-linecap:butt;stroke-linejoin:miter;stroke-opacity:1"
       d="m 100,602.36218 90.35714,0 -0.35714,-35 10,0 0,35 9.64286,0 0.35714,-35 10,0 0,35 10.35714,0 -0.35714,-35 10,0 0,35 10.71429,0 -0.71429,-35 10,0 0,35 10.71429,0 -0.71429,-35 10,0 0,35 9.64286,0 0.35714,-35 10,0 0,35 10,0 0,-35 10,0 0,35 10,0 0,-35 10,0 0,35 250,0"
       id="path2997"
       inkscape:connector-curvature="0"
       sodipodi:nodetypes="cccccccccccccccccccccccccccccccccc" />
    <text
       xml:space="preserve"
       style="font-size:12px;font-style:normal;font-weight:normal;line-height:125%;letter-spacing:0px;word-spacing:0px;fill:#000000;fill-opacity:1;stroke:none;font-family:Bitstream Vera Sans"
       x="74.467018"
       y="402.0625"
       id="text2999"
       sodipodi:linespacing="125%"><tspan
         sodipodi:role="line"
         id="tspan3001"
         x="74.467018"
         y="402.0625"
         dy="0">U<tspan
   style="font-size:8px"
   id="tspan3003"
   dy="2">L</tspan></tspan></text>
    <text
       xml:space="preserve"
       style="font-size:12px;font-style:normal;font-weight:normal;line-height:125%;letter-spacing:0px;word-spacing:0px;fill:#000000;fill-opacity:1;stroke:none;font-family:Bitstream Vera Sans"
       x="75.467018"
       y="352.0625"
       id="text2999-8"
       sodipodi:linespacing="125%"><tspan
         sodipodi:role="line"
         id="tspan3001-0"
         x="75.467018"
         y="352.0625"
         dy="0">U<tspan
   style="font-size:8px"
   id="tspan3029"
   dy="2">H</tspan></tspan></text>
    <text
       xml:space="preserve"
       style="font-size:12px;font-style:normal;font-weight:normal;line-height:125%;letter-spacing:0px;word-spacing:0px;fill:#000000;fill-opacity:1;stroke:none;font-family:Bitstream Vera Sans"
       x="74.467018"
       y="502.0625"
       id="text2999-0"
       sodipodi:linespacing="125%"><tspan
         sodipodi:role="line"
         id="tspan3001-4"
         x="74.467018"
         y="502.0625"><tspan
           style="font-size:8px"
           id="tspan3003-6"
           dy="0 2"><tspan
   style="font-size:12px"
   id="tspan3099">V</tspan>L</tspan></tspan></text>
    <text
       xml:space="preserve"
       style="font-size:12px;font-style:normal;font-weight:normal;line-height:125%;letter-spacing:0px;word-spacing:0px;fill:#000000;fill-opacity:1;stroke:none;font-family:Bitstream Vera Sans"
       x="75.467018"
       y="452.0625"
       id="text2999-8-2"
       sodipodi:linespacing="125%"><tspan
         sodipodi:role="line"
         id="tspan3001-0-6"
         x="75.467018"
         y="452.0625"><tspan
           style="font-size:8px"
           id="tspan3029-7"
           dy="0 2"><tspan
   style="font-size:12px"
   id="tspan3097">V</tspan>H</tspan></tspan></text>
    <text
       xml:space="preserve"
       style="font-size:12px;font-style:normal;font-weight:normal;line-height:125%;letter-spacing:0px;word-spacing:0px;fill:#000000;fill-opacity:1;stroke:none;font-family:Bitstream Vera Sans"
       x="74.467018"
       y="602.0625"
       id="text2999-0-7"
       sodipodi:linespacing="125%"><tspan
         sodipodi:role="line"
         id="tspan3001-4-2"
         x="74.467018"
         y="602.0625"><tspan
           style="font-size:8px"
           id="tspan3003-6-8"
           dy="0 2"><tspan
   style="font-size:12px"
   id="tspan3103">W</tspan>L</tspan></tspan></text>
    <text
       xml:space="preserve"
       style="font-size:12px;font-style:normal;font-weight:normal;line-height:125%;letter-spacing:0px;word-spacing:0px;fill:#000000;fill-opacity:1;stroke:none;font-family:Bitstream Vera Sans"
       x="75.467018"
       y="552.0625"
       id="text2999-8-2-2"
       sodipodi:linespacing="125%"><tspan
         sodipodi:role="line"
         id="tspan3001-0-6-9"
         x="75.467018"
         y="552.0625"><tspan
           style="font-size:8px"
           id="tspan3029-7-9"
           dy="0 2"><tspan
   style="font-size:12px"
   id="tspan3101">W</tspan>H</tspan></tspan></text>
  </g>
</svg>
